<?xml version="1.0" encoding="UTF-8"?>
<svg width="11px" height="11px" viewBox="0 0 11 11" version="1.1" xmlns="http://www.w3.org/2000/svg" xmlns:xlink="http://www.w3.org/1999/xlink">
    <title>icons8-dashboard-layout-7</title>
    <g id="Page-1" stroke="none" stroke-width="1" fill="none" fill-rule="evenodd">
        <g id="TweetninjaExtension4" transform="translate(-263.000000, -68.000000)" fill="#FFFFFF" fill-rule="nonzero">
            <g id="icons8-dashboard-layout-7" transform="translate(263.000000, 68.000000)">
                <path d="M3.675,0 L1.05,0 C0.470925,0 0,0.470925 0,1.05 L0,4.725 C0,5.304075 0.470925,5.775 1.05,5.775 L3.675,5.775 C4.254075,5.775 4.725,5.304075 4.725,4.725 L4.725,1.05 C4.725,0.470925 4.254075,0 3.675,0 Z M9.45,0 L6.825,0 C6.245925,0 5.775,0.470925 5.775,1.05 L5.775,2.625 C5.775,3.204075 6.245925,3.675 6.825,3.675 L9.45,3.675 C10.029075,3.675 10.5,3.204075 10.5,2.625 L10.5,1.05 C10.5,0.470925 10.029075,0 9.45,0 Z M3.675,6.825 L1.05,6.825 C0.470925,6.825 0,7.295925 0,7.875 L0,9.45 C0,10.029075 0.470925,10.5 1.05,10.5 L3.675,10.5 C4.254075,10.5 4.725,10.029075 4.725,9.45 L4.725,7.875 C4.725,7.295925 4.254075,6.825 3.675,6.825 Z M9.45,4.725 L6.825,4.725 C6.245925,4.725 5.775,5.195925 5.775,5.775 L5.775,9.45 C5.775,10.029075 6.245925,10.5 6.825,10.5 L9.45,10.5 C10.029075,10.5 10.5,10.029075 10.5,9.45 L10.5,5.775 C10.5,5.195925 10.029075,4.725 9.45,4.725 Z" id="Shape"></path>
            </g>
        </g>
    </g>
</svg>