<?xml version="1.0" encoding="iso-8859-1"?>
<!-- Generator: Adobe Illustrator 16.0.0, SVG Export Plug-In . SVG Version: 6.00 Build 0)  -->
<!DOCTYPE svg PUBLIC "-//W3C//DTD SVG 1.1//EN" "http://www.w3.org/Graphics/SVG/1.1/DTD/svg11.dtd">
<svg version="1.1" id="Capa_1" xmlns="http://www.w3.org/2000/svg" xmlns:xlink="http://www.w3.org/1999/xlink" x="0px" y="0px"
	 width="391.984px" height="391.984px" viewBox="0 0 391.984 391.984" style="enable-background:new 0 0 391.984 391.984;"
	 xml:space="preserve">
<g>
	<path d="M368.701,31.839H23.283C10.445,31.839,0,42.284,0,55.123v281.738c0,12.839,10.445,23.284,23.283,23.284h345.418
		c12.84,0,23.283-10.445,23.283-23.284V55.123C391.984,42.285,381.541,31.839,368.701,31.839z M161.153,61.15
		c0-2.923,2.393-5.315,5.314-5.315h31.87c2.923,0,5.313,2.392,5.313,5.315v9.994c0,2.923-2.392,5.315-5.313,5.315h-31.87
		c-2.922,0-5.314-2.392-5.314-5.315V61.15L161.153,61.15z M95.717,61.15c0-2.923,2.392-5.315,5.314-5.315H132.9
		c2.923,0,5.314,2.392,5.314,5.315v9.994c0,2.923-2.392,5.315-5.314,5.315h-31.869c-2.923,0-5.314-2.392-5.314-5.315V61.15z
		 M31.938,61.15c0-2.923,2.392-5.315,5.314-5.315h31.869c2.923,0,5.314,2.392,5.314,5.315v9.994c0,2.923-2.392,5.315-5.314,5.315
		H37.252c-2.923,0-5.314-2.392-5.314-5.315V61.15z M373.357,333.797c0,3.065-2.533,5.573-5.625,5.573H24.253
		c-3.094,0-5.625-2.508-5.625-5.573V101.669c0-3.065,2.531-5.573,5.625-5.573h343.479c3.092,0,5.625,2.508,5.625,5.573V333.797z"/>
	<path d="M138.026,245.023c0.988,2.09,0.853,5.463-0.303,7.496l-2.486,4.379c-1.155,2.034-0.747,5.051,0.907,6.704l14.57,14.569
		c1.654,1.652,4.671,2.062,6.705,0.908l4.182-2.373c2.034-1.154,5.42-1.266,7.525-0.245l4.576,1.913
		c2.201,0.789,4.512,3.279,5.133,5.535l1.473,5.338c0.621,2.256,3.043,4.1,5.382,4.1h20.605c2.339,0,4.762-1.844,5.382-4.1
		l1.474-5.338c0.621-2.256,2.933-4.74,5.135-5.524l4.176-1.728c2.111-1.006,5.502-0.883,7.537,0.271l4.471,2.538
		c2.033,1.153,5.051,0.746,6.705-0.907l14.57-14.568c1.654-1.653,2.062-4.67,0.908-6.705l-2.541-4.473
		c-1.154-2.033-1.275-5.425-0.27-7.535l1.713-4.127c0.785-2.203,3.271-4.514,5.525-5.136l5.521-1.522
		c2.254-0.621,4.098-3.043,4.098-5.383v-20.604c0-2.338-1.844-4.762-4.098-5.383l-5.521-1.521c-2.254-0.622-4.721-2.882-5.48-5.021
		c-0.76-2.141-2.344-9.163-1.189-11.196l2.777-4.895c1.154-2.034,0.746-5.051-0.908-6.704l-14.566-14.567
		c-1.654-1.653-4.672-2.062-6.705-0.908l-4.604,2.612c-2.035,1.154-5.42,1.263-7.523,0.241l-4.499-1.888
		c-2.2-0.793-4.509-3.287-5.131-5.542l-1.572-5.699c-0.622-2.255-3.044-4.099-5.383-4.099H185.69c-2.339,0-4.761,1.844-5.383,4.099
		l-1.572,5.699c-0.622,2.255-2.929,4.752-5.128,5.551l-4.902,2.079c-2.098,1.034-5.478,0.935-7.512-0.22l-4.309-2.446
		c-2.034-1.154-5.051-0.746-6.705,0.907l-14.57,14.568c-1.654,1.653-2.063,4.67-0.908,6.704l2.727,4.802
		c1.154,2.034,1.342,5.324,0.418,7.311c-0.924,1.987-4.688,7.99-6.941,8.612l-5.52,1.522c-2.254,0.621-4.099,3.043-4.099,5.382
		v20.604c0,2.339,1.845,4.761,4.099,5.384l5.52,1.521C133.158,236.638,137.038,242.934,138.026,245.023z M195.993,179.977
		c21.352,0,38.661,17.312,38.661,38.664s-17.311,38.662-38.661,38.662c-21.351,0-38.662-17.312-38.662-38.662
		C157.331,197.289,174.641,179.977,195.993,179.977z"/>
</g>
<g>
</g>
<g>
</g>
<g>
</g>
<g>
</g>
<g>
</g>
<g>
</g>
<g>
</g>
<g>
</g>
<g>
</g>
<g>
</g>
<g>
</g>
<g>
</g>
<g>
</g>
<g>
</g>
<g>
</g>
</svg>
