<?xml version="1.0" encoding="UTF-8"?>
<svg width="15px" height="11px" viewBox="0 0 15 11" version="1.1" xmlns="http://www.w3.org/2000/svg" xmlns:xlink="http://www.w3.org/1999/xlink">
    <title>Group</title>
    <g id="Page-1" stroke="none" stroke-width="1" fill="none" fill-rule="evenodd">
        <g id="TweetninjaExtension2" transform="translate(-128.000000, -69.000000)" fill-rule="nonzero">
            <g id="Group" transform="translate(128.000000, 69.000000)">
                <g id="icons8-credit-card-9-copy" transform="translate(6.500000, 4.500000) scale(-1, 1) translate(-6.500000, -4.500000) " fill="#FFFFFF">
                    <path d="M12.03125,2.1875 L12.03125,1.77734375 C12.03125,0.79734375 11.2339063,0 10.2539062,0 L1.77734375,0 C0.79734375,0 0,0.79734375 0,1.77734375 L0,2.1875 L12.03125,2.1875 Z M0,3.28125 L0,6.42578125 C0,7.40578125 0.79734375,8.203125 1.77734375,8.203125 L10.2539062,8.203125 C11.2339063,8.203125 12.03125,7.40578125 12.03125,6.42578125 L12.03125,3.28125 L0,3.28125 Z M9.70703125,6.2890625 L8.06640625,6.2890625 C7.83972656,6.2890625 7.65625,6.10558594 7.65625,5.87890625 C7.65625,5.65222656 7.83972656,5.46875 8.06640625,5.46875 L9.70703125,5.46875 C9.93371094,5.46875 10.1171875,5.65222656 10.1171875,5.87890625 C10.1171875,6.10558594 9.93371094,6.2890625 9.70703125,6.2890625 Z" id="Shape"></path>
                </g>
                <g id="icons8-edit-17" transform="translate(8.000000, 4.000000)">
                    <path d="M4.8515625,0 C4.6344375,0 4.4173125,0.0826875 4.2515625,0.2484375 L3.9,0.6 L5.1,1.8 L5.4515625,1.4484375 C5.7827625,1.1172375 5.7827625,0.5799375 5.4515625,0.2484375 C5.2858125,0.0826875 5.0686875,0 4.8515625,0 Z M3.45,1.05 L0,4.5 L0,5.7 L1.2,5.7 L4.65,2.25 L3.45,1.05 Z" id="Shape" stroke="#030408" stroke-width="1.5" fill="#75768F"></path>
                    <path d="M4.8515625,0 C4.6344375,0 4.4173125,0.0826875 4.2515625,0.2484375 L3.9,0.6 L5.1,1.8 L5.4515625,1.4484375 C5.7827625,1.1172375 5.7827625,0.5799375 5.4515625,0.2484375 C5.2858125,0.0826875 5.0686875,0 4.8515625,0 Z M3.45,1.05 L0,4.5 L0,5.7 L1.2,5.7 L4.65,2.25 L3.45,1.05 Z" id="Shape" fill="#FFFFFF"></path>
                </g>
            </g>
        </g>
    </g>
</svg>