<?xml version="1.0" encoding="UTF-8"?>
<svg width="12px" height="12px" viewBox="0 0 12 12" version="1.1" xmlns="http://www.w3.org/2000/svg" xmlns:xlink="http://www.w3.org/1999/xlink">
    <title>icons8-settings-19</title>
    <g id="Page-1" stroke="none" stroke-width="1" fill="none" fill-rule="evenodd">
        <g id="TweetninjaExtension5" transform="translate(-388.000000, -67.000000)" fill="#FFFFFF" fill-rule="nonzero">
            <g id="icons8-settings-19" transform="translate(388.000000, 67.000000)">
                <path d="M5.0941404,0 C4.8067404,0 4.56105936,0.20315628 4.50585936,0.48515628 L4.30546872,1.5140625 C3.81301344,1.70028072 3.35766252,1.96044246 2.9578125,2.28867186 L1.97109372,1.94882814 C1.69929378,1.85522814 1.40025,1.96761564 1.25625,2.21601564 L0.3515625,3.78398436 C0.2081625,4.03298436 0.26035314,4.3491 0.47695314,4.5375 L1.26796872,5.2253904 C1.22683086,5.4782022 1.2,5.7355704 1.2,6 C1.2,6.2644296 1.22683086,6.5217978 1.26796872,6.7746096 L0.47695314,7.4625 C0.26035314,7.6509 0.2081625,7.9670154 0.3515625,8.2160154 L1.25625,9.7839846 C1.39965,10.0329846 1.69929372,10.1453436 1.97109372,10.0523436 L2.9578125,9.7125 C3.35753052,10.0405236 3.81323604,10.2998034 4.30546872,10.4859372 L4.50585936,11.5148436 C4.56105936,11.7968436 4.8067404,12 5.0941404,12 L6.9058596,12 C7.1932596,12 7.4389404,11.7968436 7.4941404,11.5148436 L7.6945314,10.4859372 C8.1869868,10.2997194 8.6423376,10.0395576 9.0421872,9.7113282 L10.0289064,10.0511718 C10.3007064,10.1447718 10.59975,10.0329846 10.74375,9.7839846 L11.6484372,8.2148436 C11.7918378,7.9658436 11.7396468,7.6509 11.5230468,7.4625 L10.7320314,6.7746096 C10.7731692,6.5217978 10.8,6.2644296 10.8,6 C10.8,5.7355704 10.7731692,5.4782022 10.7320314,5.2253904 L11.5230468,4.5375 C11.7396468,4.3491 11.7918378,4.03298436 11.6484372,3.78398436 L10.74375,2.21601564 C10.60035,1.96701564 10.3007064,1.85465622 10.0289064,1.94765628 L9.0421872,2.2875 C8.6424696,1.95947622 8.1867642,1.70019654 7.6945314,1.5140625 L7.4941404,0.48515628 C7.4389404,0.20315622 7.1932596,0 6.9058596,0 L5.0941404,0 Z M6,3.6 C7.3254,3.6 8.4,4.6746 8.4,6 C8.4,7.3254 7.3254,8.4 6,8.4 C4.6746,8.4 3.6,7.3254 3.6,6 C3.6,4.6746 4.6746,3.6 6,3.6 Z" id="Shape"></path>
            </g>
        </g>
    </g>
</svg>